<svg width="64" height="64" viewBox="0 0 64 64" fill="none" xmlns="http://www.w3.org/2000/svg">
<path d="M21.3333 39.3334C20.8266 39.3334 20.3199 39.1468 19.9199 38.7468L14.5866 33.4135C13.8133 32.6402 13.8133 31.36 14.5866 30.5867L19.9199 25.2533C20.6933 24.48 21.9733 24.48 22.7466 25.2533C23.5199 26.0267 23.5199 27.3068 22.7466 28.0802L18.8266 32.0001L22.7466 35.92C23.5199 36.6933 23.5199 37.9735 22.7466 38.7468C22.3466 39.1468 21.8399 39.3334 21.3333 39.3334Z" fill="black"/>
<path d="M42.6664 39.3334C42.1598 39.3334 41.6531 39.1468 41.2531 38.7468C40.4798 37.9735 40.4798 36.6933 41.2531 35.92L45.1731 32.0001L41.2531 28.0802C40.4798 27.3068 40.4798 26.0267 41.2531 25.2533C42.0264 24.48 43.3064 24.48 44.0798 25.2533L49.4131 30.5867C50.1864 31.36 50.1864 32.6402 49.4131 33.4135L44.0798 38.7468C43.6798 39.1468 43.1731 39.3334 42.6664 39.3334Z" fill="black"/>
<path d="M31.9999 60.6668C16.1866 60.6668 3.33325 47.8135 3.33325 32.0002C3.33325 16.1868 16.1866 3.3335 31.9999 3.3335C47.8133 3.3335 60.6666 16.1868 60.6666 32.0002C60.6666 47.8135 47.8133 60.6668 31.9999 60.6668ZM31.9999 7.3335C18.3999 7.3335 7.33325 18.4002 7.33325 32.0002C7.33325 45.6002 18.3999 56.6668 31.9999 56.6668C45.5999 56.6668 56.6666 45.6002 56.6666 32.0002C56.6666 18.4002 45.5999 7.3335 31.9999 7.3335Z" fill="black"/>
<path d="M29.3336 40.2134C29.0669 40.2134 28.8002 40.16 28.5602 40.0534C27.5469 39.6267 27.0669 38.4534 27.5202 37.4134L32.8536 24.9599C33.2803 23.9466 34.4536 23.4666 35.4669 23.9199C36.4802 24.3466 36.9602 25.52 36.5069 26.56L31.1736 39.0133C30.8536 39.76 30.1069 40.2134 29.3336 40.2134Z" fill="black"/>
</svg>
